<?xml version="1.0" standalone="no"?>
<!DOCTYPE svg PUBLIC "-//W3C//DTD SVG 20010904//EN"
 "http://www.w3.org/TR/2001/REC-SVG-20010904/DTD/svg10.dtd">
<svg version="1.0" xmlns="http://www.w3.org/2000/svg"
 width="1419.000000pt" height="1419.000000pt" viewBox="0 0 1419.000000 1419.000000"
 preserveAspectRatio="xMidYMid meet">
<metadata>
Created by potrace 1.14, written by Peter Selinger 2001-2017
</metadata>
<g transform="translate(0.000000,1419.000000) scale(0.100000,-0.100000)"
fill="#000000" stroke="none">
<path d="M6749 14186 c-2 -2 -58 -7 -124 -10 -66 -4 -133 -9 -150 -11 -16 -1
-59 -6 -95 -9 -691 -69 -1432 -266 -2081 -554 -389 -173 -824 -419 -1169 -662
-94 -65 -397 -295 -410 -309 -3 -3 -48 -42 -100 -86 -966 -812 -1714 -1912
-2131 -3135 -160 -467 -271 -963 -334 -1485 -2 -16 -6 -61 -10 -100 -3 -38 -8
-83 -10 -100 -13 -104 -20 -317 -20 -640 0 -327 4 -445 20 -615 3 -25 9 -94
15 -155 27 -277 104 -705 181 -1003 230 -895 624 -1727 1167 -2466 108 -146
261 -339 327 -412 6 -6 55 -62 110 -124 117 -132 340 -356 486 -490 57 -52
106 -97 109 -100 12 -13 249 -208 285 -235 22 -16 42 -33 45 -36 15 -18 278
-206 425 -304 731 -485 1556 -829 2405 -1004 170 -35 168 -34 375 -65 170 -26
215 -32 310 -41 33 -3 78 -8 100 -10 263 -27 1095 -27 1230 0 11 2 52 6 90 9
39 3 102 10 141 15 40 6 96 13 125 17 187 21 631 115 884 186 441 124 841 280
1260 493 976 496 1800 1192 2461 2080 253 341 453 668 647 1055 236 472 398
902 531 1410 19 74 37 146 40 160 3 14 21 102 40 195 54 261 102 588 121 825
4 41 10 122 15 180 8 109 5 873 -5 970 -40 402 -42 414 -76 635 -229 1452
-941 2847 -1985 3889 -406 405 -733 666 -1268 1011 -209 135 -645 362 -916
478 -344 147 -706 269 -1055 356 -170 42 -510 110 -635 126 -25 3 -56 8 -70
10 -25 5 -56 9 -160 20 -30 3 -62 8 -70 10 -8 2 -58 7 -110 10 -52 3 -108 8
-125 11 -35 6 -830 15 -836 10z"/>
</g>
</svg>
